<svg xmlns="http://www.w3.org/2000/svg" xmlns:xlink="http://www.w3.org/1999/xlink" version="1.1" x="0px" y="0px" viewBox="0 0 100 100" enable-background="new 0 0 100 100" xml:space="preserve"><path fill="#000000" d="M55.5,22.6H25.9c-2.2,0-3.9,1.8-3.9,3.9s1.8,3.9,3.9,3.9h29.6c2.2,0,3.9-1.8,3.9-3.9  C59.4,24.3,57.7,22.6,55.5,22.6z"></path><path fill="#000000" d="M59.4,41.3c0-2.2-1.8-3.9-3.9-3.9H25.9c-2.2,0-3.9,1.8-3.9,3.9c0,2.2,1.8,3.9,3.9,3.9h29.6  C57.7,45.2,59.4,43.5,59.4,41.3z"></path><path fill="#000000" d="M40.7,60c2.2,0,3.9-1.8,3.9-3.9c0-2.2-1.8-3.9-3.9-3.9H25.9c-2.2,0-3.9,1.8-3.9,3.9s1.8,3.9,3.9,3.9H40.7z"></path><path fill="#000000" d="M70.5,73.4l-4.1,2.7V86H15.1V15h51.2v15.6l7.9-13.7v-5.9c0-2.2-1.8-3.9-3.9-3.9H11.1c-2.2,0-3.9,1.8-3.9,3.9  v78.8c0,2.2,1.8,3.9,3.9,3.9h59.1c2.2,0,3.9-1.8,3.9-3.9V68.2l-1.9,3.3C71.9,72.2,71.2,72.9,70.5,73.4z"></path><path fill="#000000" d="M93.8,25.4c-0.1-0.4-0.9-3.5-5.9-6.4c-5-2.9-8.2-2-8.5-1.9c-0.5,0.1-0.9,0.5-1.1,0.9L53.5,60.6  c-0.2,0.3-0.2,0.6-0.3,0.9l-0.9,15.4c0,0.7,0.3,1.5,1,1.8c0.6,0.4,1.4,0.3,2.1-0.1l12.9-8.5c0.3-0.2,0.5-0.4,0.6-0.7l24.6-42.7  C93.8,26.4,93.9,25.9,93.8,25.4z M60.4,71.8c-0.7-0.5-1.4-1-2.2-1.5c-0.8-0.5-1.6-0.9-2.4-1.2l0.3-4.6c1,0.1,2.6,0.6,4.5,1.7  c1.9,1.1,3.1,2.2,3.7,3.1L60.4,71.8z"></path><path fill="#000000" d="M34.7,78.2c0.1,0.8,1,1,1.7,1.3c0.6,0.2,1.3-0.2,1.8-0.5c3-1.5,7.1,0.3,10.3,0.3c1.9,0,1.9-3,0-3  c-3.8,0-6.9-1-10.6-0.3c0-0.2-0.1-0.5-0.3-0.9c-0.7-1.2-1.6-1.5-2.5-1.4c-0.1-0.1-0.1-0.3-0.2-0.4c-0.2-0.4-0.6-0.6-0.9-0.6  c1-1.8,1.7-3.7,1-5.3c-0.2-0.5-0.8-0.7-1.3-0.7c-2-0.1-3.7,2-4.9,3.2c-3.2,3.1-6,6.6-8.7,10.2c-1.2,1.5,1.4,3,2.6,1.5  c2.4-3.1,4.9-6.1,7.7-9c-0.7,1.1-1.4,2.1-2.1,3.2c-1.1,1.6,1.5,3,2.6,1.5c0.3-0.4,0.6-0.7,1-0.9c-0.1,0.2-0.1,0.4-0.2,0.5  c0,0,0,0,0,0c-0.1,0.1-0.1,0.2-0.2,0.3c-0.7,1.7,1.8,2.4,2.7,1.1c0.2-0.3,0.4-0.7,0.6-1C34.6,77.6,34.6,77.9,34.7,78.2z"></path></svg>